<?xml version="1.0" encoding="utf-8"?>
<!-- Generator: Adobe Illustrator 16.0.0, SVG Export Plug-In . SVG Version: 6.00 Build 0)  -->
<!DOCTYPE svg PUBLIC "-//W3C//DTD SVG 1.1//EN" "http://www.w3.org/Graphics/SVG/1.1/DTD/svg11.dtd">
<svg version="1.1" id="Layer_1" xmlns="http://www.w3.org/2000/svg" xmlns:xlink="http://www.w3.org/1999/xlink" x="0px" y="0px"
	 width="119.055px" height="64.042px" viewBox="0 3.708 119.055 64.042" enable-background="new 0 3.708 119.055 64.042"
	 xml:space="preserve">
<g>
	<g>
		<path fill="#231F20" d="M103.991,59.199l3.333-0.354c0.013,0.512,0.205,1.666,1.134,2.043c0.299,0.135,0.68,0.217,1.18,0.135
			c0.378-0.053,0.864-0.439,1.118-0.896c0.271-0.545,0.212-1.197-0.027-1.605l-0.091-0.113l-0.078-0.104l-0.135-0.113l-0.105-0.105
			l-0.167-0.107l-0.168-0.115l-0.192-0.082l-0.186-0.104l-0.212-0.113c-0.409-0.166-0.908-0.295-1.375-0.408
			c-1.438-0.295-2.666-0.621-3.345-2.039c-0.468-0.99-0.636-2.291-0.438-3.199c0.317-1.361,0.979-2.316,1.771-2.934
			c0.636-0.496,1.284-0.795,2.271-0.934l0.272-0.025h0.241h0.271h0.195c2.562,0.076,4.36,1.711,4.799,4.141l-3.391,0.463
			c0.136-0.648-0.072-1.119-0.481-1.416c-1.152-0.934-3.224-0.078-2.651,1.656c0.338,1.018,4.15,2.107,4.56,2.324
			c1.526,0.85,2.147,1.717,2.283,3.246v0.219v0.213v0.25l-0.014,0.24l-0.031,0.271l-0.033,0.227l-0.058,0.246l-0.048,0.209
			l-0.09,0.25l-0.077,0.223l-0.091,0.188l-0.104,0.221l-0.104,0.188l-0.138,0.189l-0.134,0.195l-0.14,0.184l-0.169,0.168
			l-0.166,0.168l-0.182,0.164l-0.195,0.135l-0.182,0.139l-0.195,0.135L112,62.968l-0.212,0.104l-0.213,0.105l-0.229,0.09
			l-0.241,0.045l-0.238,0.092l-0.247,0.055c-1.207,0.219-3.089,0.189-4.178-0.354C105.021,62.386,103.964,60.941,103.991,59.199
			L103.991,59.199z M95.865,63.505v-2.996c1.151,0,2.482-0.631,2.271-2.244l3.56,0.055c-0.453,2.533-1.572,4.336-4.193,4.963
			l-0.209,0.055l-0.228,0.061l-0.213,0.031l-0.24,0.021l-0.228,0.023h-0.245l-0.242,0.031H95.865L95.865,63.505z M95.865,56.687
			v-2.621h2.242v-0.082v-0.182l-0.03-0.195l-0.032-0.189l-0.028-0.158l-0.031-0.168l-0.014-0.162l-0.064-0.168l-0.025-0.137
			l-0.044-0.137l-0.064-0.137l-0.06-0.137l-0.077-0.137l-0.045-0.104L97.5,51.863l-0.044-0.102l-0.093-0.123l-0.072-0.074
			l-0.09-0.084l-0.109-0.084l-0.074-0.053l-0.122-0.078l-0.077-0.059l-0.104-0.051l-0.104-0.027l-0.124-0.059l-0.104-0.025
			l-0.108-0.023h-0.136l-0.138-0.027h-0.104h-0.029v-2.781h0.075l0.362,0.021l0.319,0.035l0.332,0.051l0.305,0.086l0.304,0.076
			l0.285,0.107l0.286,0.113l0.26,0.133l0.285,0.143l0.246,0.186l0.24,0.158l0.242,0.195l0.226,0.213l0.215,0.229l0.193,0.246
			l0.107,0.137l0.074,0.137l0.122,0.107l0.079,0.137l0.072,0.137l0.091,0.137l0.076,0.162c0.851,1.664,1.259,3.328,1.193,5.176
			v0.027v0.031v0.295H95.865L95.865,56.687z M95.865,48.212v2.781H95.76l-0.122,0.027h-0.136l-0.105,0.023l-0.104,0.025
			l-0.108,0.059l-0.072,0.027l-0.123,0.051l-0.078,0.059l-0.104,0.055l-0.092,0.076l-0.076,0.084l-0.072,0.084l-0.092,0.074
			l-0.077,0.123l-0.092,0.076l-0.058,0.137l-0.078,0.104l-0.045,0.137l-0.061,0.104l-0.077,0.137l-0.06,0.168l-0.033,0.137
			l-0.043,0.168l-0.059,0.162l-0.032,0.168l-0.016,0.189l-0.03,0.158L93.683,53.8l-0.027,0.213l-0.032,0.051h2.239v2.619H93.58
			c0.043,1.445,0.238,3.109,1.257,3.602c0.271,0.137,0.647,0.223,1.025,0.223v2.996h-0.228h-0.346l-0.317-0.031l-0.364-0.045
			l-0.315-0.059l-0.306-0.064l-0.332-0.104l-0.304-0.078l-0.271-0.137c-2.452-1.203-3.348-4.063-3.405-6.629
			c-0.061-2.783,0.647-6.271,3.374-7.631l0.271-0.139l0.304-0.107l0.306-0.076l0.318-0.063l0.331-0.074l0.332-0.035l0.35-0.021
			h0.332h0.274L95.865,48.212L95.865,48.212z M83.488,63.234L83.76,42.46h3.568l-0.303,20.773H83.488L83.488,63.234z M77.022,63.234
			V48.269h3.542v14.965H77.022L77.022,63.234z M77.022,46.091v-3.633h3.813v3.633H77.022L77.022,46.091z M72.682,58.74
			c0.027,1.906,1.289,2.588,2.679,1.844v2.65c-3.022,0.877-5.721,0.273-6.221-3.219V51.73h-1.797v-3.461h1.797v-3.713h3.542v3.713
			h2.979v3.461h-2.979V58.74L72.682,58.74z"/>
	</g>
	<g>
		<rect x="1.417" y="5.188" fill="#ED2025" width="61.285" height="61.292"/>
	</g>
	<g>
		<rect x="1.417" y="17.353" fill="#FFFFFF" width="51.783" height="1.523"/>
	</g>
	<g>
		<rect x="16.277" y="5.188" fill="#FFFFFF" width="1.497" height="21.073"/>
	</g>
	<g>
		<rect x="32.967" y="5.188" fill="#FFFFFF" width="1.089" height="29.308"/>
	</g>
	<g>
		<path fill="#FFFFFF" d="M50.854,63.234V61.16c0.998-0.219,1.805-1.498,2.181-2.453v-2.428c-0.637-0.021-1.453,0.055-2.181,0.305
			v-2.461c0.79-0.055,1.529-0.078,2.181-0.158c0.244-2.102-0.409-2.971-1.799-3.105c-0.136-0.021-0.271-0.021-0.382-0.021v-2.924
			c0.109,0,0.246,0,0.352,0c3.813,0,5.552,1.934,5.552,4.771v7.469c0,1.066-0.072,2.131,0.391,3.133h-3.932v-1.93
			C52.597,62.115,51.808,62.794,50.854,63.234z M14.57,63.429h3.134V42.376h-3.877v7.332c-0.815-0.758-1.562-1.389-2.517-1.662
			v3.023c1.09,0,1.862,0.793,2.517,1.635v5.813c-0.607,0.926-1.333,1.711-2.425,1.711c-0.025,0-0.054,0-0.091,0v3.475
			c1.183-0.174,1.943-0.771,2.897-1.668L14.57,63.429L14.57,63.429z M50.854,47.912v2.924c-1.376,0.051-1.966,1.076-2.162,2.303
			l-3.571-0.453c0.239-0.953,0.635-1.885,1.09-2.564C47.299,48.642,48.92,47.998,50.854,47.912L50.854,47.912z M50.854,54.123v2.461
			c-0.635,0.188-1.192,0.514-1.589,0.977c-0.786,0.898-0.786,2.342,0,3.057c0.577,0.543,1.09,0.648,1.589,0.543v2.076
			c-0.299,0.137-0.604,0.24-0.908,0.322c-1.331,0.357-2.888,0.223-3.977-0.795c-0.928-0.814-1.227-2.088-1.199-3.613
			c0-1.998,1.135-3.393,2.697-4.176C48.511,54.427,49.706,54.228,50.854,54.123L50.854,54.123z M28.173,63.285h3.75V48.371h-3.75
			v10.256c-0.715,0.816-1.427,1.633-2.516,1.633c-1.602,0-1.556-1.742-1.556-2.969v-8.92H20.38v10.527
			c0,3.705,2.179,4.85,3.722,4.85c1.556,0,3.188-1.029,4.07-2.42L28.173,63.285L28.173,63.285z M38.478,48.371h-3.74v14.914h3.876
			v-6.598c0-2.859,1.845-5.457,4.77-4.799v-3.844c-0.624,0-1.472-0.133-2.043,0.053c-1.122,0.385-1.771,1.42-2.861,2.787
			L38.478,48.371L38.478,48.371z M11.31,48.046c-0.281-0.084-0.617-0.135-0.962-0.135c-2.061,0-5.194,1.906-5.194,7.469
			c0,6.355,2.615,8.367,5.477,8.367c0.263,0,0.473-0.031,0.681-0.045v-3.475c-2.18-0.078-2.506-2.939-2.506-4.713
			c0-1.666,0.455-4.445,2.506-4.445L11.31,48.046L11.31,48.046z"/>
	</g>
	<g>
		<path fill="#FFFFFF" d="M22.16,46.771c0.263,0,0.407-0.09,0.535-0.221c0.138-0.137,0.183-0.359,0.183-0.66
			c0-0.295-0.045-0.518-0.183-0.652C22.568,45.074,22.423,45,22.16,45v-0.336c0.136,0,0.263,0.029,0.362,0.088
			c0.109,0.051,0.22,0.137,0.317,0.271v-0.295h0.398v2.256c0,0.354-0.091,0.627-0.242,0.764c-0.164,0.164-0.438,0.25-0.837,0.25
			v-0.332c0.263,0,0.407-0.027,0.535-0.137c0.1-0.076,0.146-0.25,0.146-0.463v-0.295c-0.072,0.1-0.182,0.188-0.28,0.236
			c-0.128,0.059-0.264,0.086-0.398,0.113L22.16,46.771L22.16,46.771z M22.16,45c-0.208,0-0.373,0.074-0.482,0.238
			c-0.134,0.137-0.198,0.357-0.198,0.652c0,0.271,0.064,0.496,0.198,0.631c0.109,0.16,0.274,0.25,0.482,0.25l0,0v0.35
			c0,0-0.01,0-0.044,0c-0.301,0-0.548-0.113-0.735-0.35c-0.185-0.221-0.312-0.521-0.312-0.902c0-0.357,0.126-0.652,0.312-0.869
			c0.188-0.227,0.436-0.359,0.735-0.359c0.035,0,0.044,0.023,0.044,0.023V45L22.16,45L22.16,45z M22.16,47.666v0.332l0,0
			c-0.316,0-0.544-0.061-0.727-0.174c-0.164-0.135-0.237-0.295-0.237-0.508l0,0h0.372l0,0c0,0.137,0.036,0.213,0.14,0.271
			C21.817,47.638,21.979,47.666,22.16,47.666L22.16,47.666z"/>
	</g>
	<g>
		<path fill="#FFFFFF" d="M23.831,47.044v-2.316h0.362v0.408c0.072-0.137,0.146-0.271,0.271-0.334
			c0.102-0.074,0.209-0.139,0.374-0.139c0.031,0,0.063,0,0.063,0c0.014,0,0.014,0.029,0.044,0.029v0.408c-0.03,0-0.03,0-0.044,0
			c0,0-0.03,0-0.063,0c-0.195,0-0.363,0.061-0.464,0.172c-0.109,0.102-0.153,0.271-0.153,0.48v1.289h-0.391V47.044z"/>
	</g>
	<g>
		<path fill="#FFFFFF" d="M26.233,45.681h0.622c0-0.221-0.044-0.385-0.167-0.494C26.584,45.05,26.417,45,26.234,45l0,0V44.64
			c0.319,0,0.577,0.109,0.76,0.324c0.162,0.195,0.271,0.494,0.271,0.854c0,0.051,0,0.072,0,0.1c0,0.035,0,0.061,0,0.088h-1.031
			L26.233,45.681L26.233,45.681z M26.233,47.121v-0.35h0.033c0.149,0,0.272-0.063,0.376-0.135c0.104-0.086,0.168-0.195,0.212-0.336
			h0.377c-0.045,0.25-0.147,0.436-0.349,0.607C26.718,47.044,26.505,47.121,26.233,47.121z M25.585,45.681h0.646v0.322h-0.646
			c0.012,0.246,0.072,0.438,0.181,0.547c0.104,0.131,0.272,0.184,0.467,0.221v0.35l0,0c-0.331,0-0.604-0.113-0.771-0.326
			c-0.183-0.219-0.304-0.521-0.304-0.877c0-0.406,0.121-0.701,0.304-0.918c0.167-0.227,0.439-0.359,0.771-0.359l0,0V45
			c-0.193,0-0.362,0.051-0.467,0.16C25.657,45.296,25.597,45.46,25.585,45.681z"/>
	</g>
	<g>
		<path fill="#FFFFFF" d="M27.537,46.273h0.376c0.03,0.168,0.092,0.305,0.169,0.363c0.104,0.07,0.253,0.135,0.435,0.135
			c0.168,0,0.305-0.037,0.381-0.113c0.117-0.059,0.149-0.137,0.149-0.271c0-0.086-0.033-0.137-0.061-0.195
			c-0.063-0.027-0.136-0.076-0.304-0.1l-0.439-0.113c-0.209-0.061-0.408-0.135-0.482-0.25c-0.109-0.082-0.136-0.217-0.136-0.402
			c0-0.188,0.046-0.357,0.21-0.496c0.168-0.102,0.349-0.164,0.634-0.164c0.26,0,0.487,0.063,0.655,0.199
			c0.162,0.102,0.241,0.297,0.241,0.51l0,0h-0.379c0-0.137-0.063-0.213-0.136-0.299c-0.091-0.053-0.227-0.074-0.382-0.074
			c-0.136,0-0.285,0.021-0.362,0.074c-0.072,0.063-0.104,0.141-0.104,0.25c0,0.049,0.031,0.135,0.078,0.156
			c0.025,0.064,0.135,0.088,0.284,0.115l0.363,0.084c0.284,0.072,0.44,0.16,0.559,0.236c0.109,0.107,0.153,0.244,0.153,0.445
			c0,0.234-0.106,0.408-0.271,0.545c-0.156,0.135-0.409,0.213-0.7,0.213c-0.298,0-0.526-0.078-0.693-0.213
			C27.626,46.771,27.537,46.55,27.537,46.273z"/>
	</g>
	<g>
		<path fill="#FFFFFF" d="M32.18,46.771L32.18,46.771c0.215,0,0.378-0.09,0.487-0.25c0.136-0.158,0.193-0.381,0.193-0.68
			c0-0.246-0.06-0.469-0.193-0.605c-0.109-0.164-0.307-0.238-0.487-0.238v-0.336c0.015,0,0.045-0.021,0.079-0.021
			c0.3,0,0.544,0.131,0.74,0.357c0.147,0.215,0.271,0.512,0.271,0.869c0,0.381-0.123,0.682-0.271,0.902
			c-0.195,0.213-0.44,0.35-0.74,0.35c-0.034,0-0.064,0-0.079-0.025V46.771z M31.5,45.89c0,0.301,0.046,0.521,0.148,0.66
			c0.122,0.131,0.272,0.221,0.53,0.221v0.322c-0.134,0-0.257-0.027-0.364-0.088c-0.136-0.049-0.238-0.135-0.314-0.234v1.189h-0.396
			v-3.232H31.5v0.322c0.104-0.141,0.213-0.248,0.314-0.301c0.106-0.059,0.229-0.086,0.364-0.086V45l0,0
			c-0.228,0-0.408,0.074-0.53,0.238C31.545,45.41,31.5,45.625,31.5,45.89z"/>
	</g>
	<g>
		<path fill="#FFFFFF" d="M34.708,46.771L34.708,46.771c0.242,0,0.408-0.09,0.546-0.221c0.104-0.164,0.164-0.389,0.164-0.684
			c0-0.271-0.062-0.494-0.164-0.652C35.116,45.074,34.95,45,34.708,45l0,0V44.64c0.362,0,0.636,0.109,0.817,0.324
			c0.195,0.223,0.301,0.518,0.301,0.902c0,0.404-0.104,0.709-0.301,0.926c-0.183,0.213-0.456,0.328-0.817,0.328l0,0V46.771z
			 M33.996,45.869c0,0.295,0.091,0.52,0.193,0.684c0.138,0.131,0.307,0.221,0.519,0.221v0.35c-0.351,0-0.622-0.113-0.817-0.326
			c-0.2-0.219-0.271-0.521-0.271-0.926c0-0.387,0.07-0.682,0.271-0.902c0.195-0.215,0.468-0.324,0.817-0.324v0.357
			c-0.212,0-0.407,0.074-0.519,0.217C34.087,45.375,33.996,45.597,33.996,45.869z"/>
	</g>
	<g>
		<path fill="#FFFFFF" d="M36.298,47.044v-2.316h0.378v0.408c0.045-0.137,0.136-0.271,0.24-0.334
			c0.107-0.074,0.245-0.139,0.381-0.139c0.028,0,0.059,0,0.092,0l0.012,0.029v0.408h-0.012c-0.033,0-0.033,0-0.063,0
			c-0.208,0-0.379,0.061-0.481,0.172c-0.122,0.102-0.167,0.271-0.167,0.48v1.289h-0.38V47.044z"/>
	</g>
	<g>
		<path fill="#FFFFFF" d="M39.296,45.482c0-0.131-0.066-0.268-0.168-0.346C39.024,45.05,38.886,45,38.688,45
			c-0.183,0-0.346,0.074-0.468,0.238c-0.136,0.137-0.183,0.357-0.183,0.631c0,0.293,0.047,0.518,0.168,0.652
			c0.104,0.16,0.271,0.25,0.455,0.25c0.192,0,0.33-0.063,0.435-0.172c0.123-0.078,0.202-0.213,0.214-0.408h0.364
			c0,0.309-0.104,0.518-0.306,0.68c-0.149,0.174-0.407,0.25-0.707,0.25c-0.318,0-0.576-0.113-0.729-0.326
			c-0.2-0.219-0.272-0.521-0.272-0.902s0.072-0.676,0.272-0.893c0.181-0.227,0.422-0.357,0.754-0.357
			c0.302,0,0.542,0.086,0.712,0.246c0.168,0.135,0.273,0.352,0.273,0.594H39.296z"/>
	</g>
	<g>
		<path fill="#FFFFFF" d="M41.002,45.681h0.634c0-0.221-0.058-0.385-0.163-0.494C41.364,45.05,41.228,45,41.001,45l0,0V44.64
			c0.336,0,0.606,0.109,0.771,0.324c0.184,0.195,0.274,0.494,0.274,0.854c0,0.051,0,0.072,0,0.1c0,0.035,0,0.061,0,0.088h-1.045
			L41.002,45.681L41.002,45.681z M41.002,47.121v-0.35h0.032c0.167,0,0.305-0.063,0.406-0.135c0.093-0.086,0.168-0.195,0.194-0.336
			h0.382c-0.032,0.25-0.135,0.436-0.336,0.607C41.501,47.044,41.273,47.121,41.002,47.121z M40.385,45.681h0.617v0.322h-0.617
			c0,0.246,0.059,0.438,0.195,0.547c0.104,0.131,0.238,0.184,0.422,0.221v0.35l0,0c-0.317,0-0.56-0.113-0.753-0.326
			c-0.2-0.219-0.272-0.521-0.272-0.877c0-0.406,0.072-0.701,0.272-0.918c0.194-0.227,0.436-0.359,0.753-0.359l0,0V45
			c-0.184,0-0.317,0.051-0.422,0.16C40.457,45.296,40.412,45.46,40.385,45.681z"/>
	</g>
	<g>
		<rect x="42.501" y="43.847" fill="#FFFFFF" width="0.395" height="3.197"/>
	</g>
	<g>
		<rect x="43.485" y="43.847" fill="#FFFFFF" width="0.408" height="3.197"/>
	</g>
	<g>
		<path fill="#FFFFFF" d="M45.905,46.734c-0.104,0.115-0.24,0.225-0.377,0.273c-0.076,0.035-0.136,0.059-0.214,0.086v-0.322
			c0.138-0.037,0.274-0.09,0.351-0.172c0.139-0.1,0.228-0.213,0.228-0.408v-0.322c-0.104,0.049-0.302,0.107-0.544,0.137h-0.032
			v-0.322l0.109-0.037c0.195,0,0.3-0.021,0.364-0.049c0.044,0,0.07-0.027,0.07-0.051c0.032-0.037,0.032-0.086,0.032-0.195
			c0-0.111-0.059-0.189-0.136-0.275c-0.091-0.053-0.228-0.074-0.396-0.074c-0.015,0-0.015,0-0.046,0v-0.336
			c0.032,0,0.046-0.023,0.046-0.023c0.336,0,0.544,0.088,0.683,0.188c0.168,0.109,0.226,0.311,0.226,0.547v1.146
			c0,0.115,0.031,0.16,0.064,0.188c0,0.025,0.046,0.063,0.104,0.063h0.031c0.014,0,0.046-0.037,0.074-0.037v0.311
			c-0.062,0.021-0.105,0.021-0.137,0.021c-0.027,0-0.06,0.027-0.105,0.027c-0.104,0-0.225-0.027-0.271-0.109
			C45.937,46.931,45.905,46.849,45.905,46.734L45.905,46.734z M45.314,47.093c-0.057,0-0.137,0.027-0.208,0.027
			c-0.228,0-0.428-0.078-0.545-0.189c-0.138-0.137-0.2-0.295-0.2-0.518c0-0.225,0.063-0.389,0.2-0.496
			c0.118-0.1,0.318-0.189,0.59-0.213l0.164-0.023v0.322c-0.09,0-0.137,0-0.164,0.021c-0.136,0.029-0.245,0.064-0.302,0.115
			c-0.079,0.049-0.104,0.158-0.104,0.271c0,0.107,0.059,0.188,0.104,0.268c0.089,0.055,0.193,0.092,0.329,0.092
			c0.047,0,0.08,0,0.137,0L45.314,47.093L45.314,47.093z M45.314,45c-0.164,0-0.271,0.051-0.36,0.104
			c-0.074,0.086-0.121,0.193-0.121,0.332H44.47V45.41c0-0.221,0.091-0.408,0.24-0.543c0.138-0.137,0.364-0.201,0.604-0.201V45z"/>
	</g>
	<g>
		<path fill="#FFFFFF" d="M48.42,47.044v-1.42c0-0.215-0.031-0.387-0.109-0.463c-0.059-0.111-0.193-0.139-0.344-0.139
			c-0.229,0-0.396,0.051-0.499,0.191c-0.136,0.109-0.182,0.268-0.182,0.514v1.314H46.89v-2.314h0.364v0.346
			c0.104-0.137,0.181-0.246,0.314-0.301c0.124-0.082,0.274-0.109,0.44-0.109c0.164,0,0.3,0.029,0.436,0.088
			c0.109,0.051,0.201,0.137,0.274,0.248c0.031,0.051,0.063,0.104,0.075,0.189c0,0.084,0.034,0.186,0.034,0.357v0.1v1.398H48.42z"/>
	</g>
	<g>
		<path fill="#FFFFFF" d="M50.827,46.734c-0.108,0.115-0.245,0.225-0.383,0.273c-0.06,0.035-0.136,0.059-0.227,0.086v-0.322
			c0.136-0.037,0.271-0.09,0.394-0.172c0.106-0.1,0.185-0.213,0.185-0.408v-0.322c-0.104,0.049-0.272,0.107-0.544,0.137H50.22
			v-0.322l0.108-0.037c0.193,0,0.299-0.021,0.362-0.049c0.045,0,0.071-0.027,0.071-0.051c0.033-0.037,0.033-0.086,0.033-0.195
			c0-0.111-0.061-0.189-0.136-0.275c-0.076-0.053-0.215-0.074-0.376-0.074c-0.032,0-0.032,0-0.064,0v-0.336
			c0.032,0,0.064-0.023,0.064-0.023c0.328,0,0.544,0.088,0.708,0.188c0.135,0.109,0.213,0.311,0.213,0.547v1.146
			c0,0.115,0,0.16,0.029,0.188c0.014,0.025,0.045,0.063,0.104,0.063c0,0,0.032,0,0.059,0c0,0,0.019-0.037,0.045-0.037v0.311
			c-0.045,0.021-0.104,0.021-0.136,0.021c-0.027,0-0.06,0.027-0.104,0.027c-0.104,0-0.214-0.027-0.273-0.109
			C50.854,46.931,50.827,46.849,50.827,46.734L50.827,46.734z M50.219,47.093c-0.06,0-0.136,0.027-0.208,0.027
			c-0.228,0-0.411-0.078-0.545-0.189c-0.137-0.137-0.2-0.295-0.2-0.518c0-0.225,0.063-0.389,0.2-0.496
			c0.134-0.1,0.317-0.189,0.59-0.213l0.164-0.023v0.322c-0.06,0-0.136,0-0.164,0.021c-0.123,0.029-0.245,0.064-0.291,0.115
			c-0.058,0.049-0.104,0.158-0.104,0.271c0,0.107,0.046,0.188,0.104,0.268c0.078,0.055,0.182,0.092,0.318,0.092
			c0.063,0,0.076,0,0.136,0V47.093L50.219,47.093z M50.219,45c-0.164,0-0.272,0.051-0.346,0.104
			c-0.09,0.086-0.138,0.193-0.138,0.332h-0.36V45.41c0-0.221,0.091-0.408,0.241-0.543c0.147-0.137,0.361-0.201,0.604-0.201
			L50.219,45L50.219,45z"/>
	</g>
	<g>
		<path fill="#FFFFFF" d="M52.262,46.462c0,0.088,0,0.174,0.03,0.195c0.032,0.023,0.091,0.051,0.168,0.051c0.025,0,0.059,0,0.075,0
			c0.029,0,0.089,0,0.135,0v0.336c-0.074,0-0.135,0.021-0.185,0.021c-0.025,0-0.09,0-0.136,0c-0.164,0-0.3-0.021-0.377-0.109
			c-0.059-0.049-0.123-0.186-0.123-0.381V45.05h-0.315v-0.322h0.315v-0.635h0.41v0.635h0.408v0.322H52.26L52.262,46.462
			L52.262,46.462z"/>
	</g>
	<g>
		<path fill="#FFFFFF" d="M54.019,46.771h0.031c0.21,0,0.377-0.09,0.514-0.221c0.104-0.164,0.149-0.389,0.149-0.684
			c0-0.271-0.044-0.494-0.149-0.652C54.428,45.074,54.26,45,54.05,45h-0.031V44.64c0.352,0,0.621,0.109,0.817,0.324
			c0.212,0.223,0.284,0.518,0.284,0.902c0,0.404-0.072,0.709-0.284,0.926c-0.197,0.213-0.467,0.328-0.787,0.328h-0.031
			L54.019,46.771L54.019,46.771z M53.339,45.869c0,0.295,0.044,0.52,0.146,0.684c0.138,0.131,0.307,0.221,0.532,0.221v0.35
			c-0.332,0-0.604-0.113-0.804-0.326c-0.182-0.219-0.287-0.521-0.287-0.926c0-0.387,0.105-0.682,0.287-0.902
			c0.198-0.215,0.472-0.324,0.804-0.324v0.357c-0.227,0-0.396,0.074-0.532,0.217C53.383,45.375,53.339,45.597,53.339,45.869z"/>
	</g>
	<g>
		<rect x="59.542" y="53.91" fill="#FFFFFF" width="3.16" height="3.109"/>
	</g>
	<g>
		<rect x="62.702" y="53.91" fill="#231F20" width="3.169" height="3.109"/>
	</g>
	<g>
		<path d="M115.995,47.416c0.209,0,0.423,0.037,0.615,0.115c0.216,0.082,0.383,0.217,0.545,0.383c0.17,0.133,0.273,0.32,0.35,0.518
			c0.093,0.213,0.133,0.408,0.133,0.621c0,0.25-0.04,0.469-0.133,0.658c-0.075,0.195-0.179,0.381-0.35,0.518
			c-0.163,0.164-0.346,0.271-0.545,0.387c-0.209,0.072-0.406,0.107-0.615,0.107V50.5c0.181,0,0.376-0.021,0.544-0.107
			c0.149-0.051,0.315-0.164,0.479-0.299c0.109-0.133,0.214-0.297,0.308-0.459c0.073-0.174,0.104-0.359,0.104-0.545
			c0-0.195-0.03-0.383-0.104-0.58c-0.094-0.164-0.169-0.322-0.308-0.461c-0.134-0.135-0.299-0.244-0.454-0.299
			c-0.193-0.082-0.39-0.109-0.569-0.109l0,0L115.995,47.416L115.995,47.416z M115.995,49.166h0.013l0.396,0.814h0.408l-0.408-0.871
			c0.138-0.021,0.209-0.082,0.288-0.158c0.088-0.086,0.121-0.195,0.121-0.332c0-0.189-0.063-0.299-0.199-0.387
			c-0.137-0.1-0.33-0.135-0.604-0.135h-0.013v0.223c0.147,0,0.271,0.021,0.344,0.086c0.079,0.051,0.108,0.135,0.108,0.236
			c0,0.113-0.03,0.193-0.108,0.223c-0.072,0.049-0.195,0.086-0.344,0.086v0.215H115.995z M115.995,47.416L115.995,47.416v0.225
			c-0.199,0-0.396,0.025-0.544,0.107c-0.168,0.055-0.338,0.166-0.475,0.299c-0.135,0.139-0.24,0.297-0.331,0.461
			c-0.045,0.197-0.104,0.385-0.104,0.58c0,0.16,0.059,0.35,0.104,0.51c0.091,0.199,0.196,0.336,0.331,0.473
			c0.136,0.137,0.273,0.244,0.475,0.32c0.147,0.088,0.345,0.109,0.544,0.109l0,0v0.223l0,0c-0.229,0-0.44-0.035-0.637-0.109
			c-0.228-0.113-0.382-0.223-0.545-0.387c-0.167-0.158-0.271-0.32-0.349-0.543c-0.091-0.188-0.137-0.408-0.137-0.631
			c0-0.215,0.045-0.408,0.137-0.621c0.077-0.197,0.214-0.385,0.377-0.547c0.135-0.158,0.335-0.271,0.517-0.354
			C115.555,47.453,115.768,47.416,115.995,47.416L115.995,47.416z M115.995,48.097h-0.667v1.885h0.362v-0.816h0.306v-0.213l0,0
			h-0.306v-0.631h0.259h0.046V48.097z"/>
	</g>
</g>
</svg>
