<?xml version="1.0" encoding="utf-8"?>
<!-- Generator: Adobe Illustrator 16.0.0, SVG Export Plug-In . SVG Version: 6.00 Build 0)  -->
<!DOCTYPE svg PUBLIC "-//W3C//DTD SVG 1.1//EN" "http://www.w3.org/Graphics/SVG/1.1/DTD/svg11.dtd">
<svg version="1.1" id="Layer_1" xmlns="http://www.w3.org/2000/svg" xmlns:xlink="http://www.w3.org/1999/xlink" x="0px" y="0px"
	 width="233.484px" height="39.686px" viewBox="0 0 233.484 39.686" enable-background="new 0 0 233.484 39.686"
	 xml:space="preserve">
<g>
	<path fill="#ED1C24" d="M39.445,0v4.027L10.14,39.436H0V0H39.445L39.445,0z M39.445,11.265v28.167H16.14L39.445,11.265
		L39.445,11.265z"/>
	<g>
		<path fill="#7E7E7E" d="M60.392,39.42h-3.664l-1.037-5.57h-5.955l-1.053,5.57h-3.605l6.078-28.163h3.114L60.392,39.42
			L60.392,39.42z M55.188,30.998L55.188,30.998l-2.472-13.359H52.62l-2.336,13.359H55.188L55.188,30.998z"/>
		<polygon fill="#7E7E7E" points="79.32,39.42 74.968,39.42 68.863,25.119 68.752,25.119 68.752,39.42 64.901,39.42 64.901,11.257 
			68.752,11.257 68.752,25.207 68.863,25.207 75.419,11.257 79.271,11.257 72.413,24.932 		"/>
		<path fill="#7E7E7E" d="M96.203,29.451c0,3.246-0.554,5.762-1.66,7.551c-1.106,1.795-3.053,2.684-5.86,2.684
			c-2.5,0-4.317-0.922-5.431-2.774c-1.125-1.845-1.679-5.401-1.679-10.662c0-0.616,0.06-2.264,0.197-4.942
			c0.13-2.671,0.328-4.484,0.588-5.436c0.261-0.953,0.689-1.836,1.285-2.655c0.613-0.817,1.377-1.426,2.308-1.834
			c0.931-0.404,2.015-0.605,3.265-0.605c1.776,0,3.299,0.534,4.576,1.601c1.285,1.069,1.996,2.479,2.126,4.235l-3.585,1.3
			c-0.289-2.711-1.327-4.064-3.116-4.064c-1.366,0-2.323,0.701-2.854,2.111c-0.547,1.403-0.813,3.74-0.813,6.996v1.438
			c0,1.888,0.06,3.683,0.184,5.396c0.11,1.721,0.225,2.98,0.327,3.773c0.104,0.795,0.315,1.43,0.644,1.902
			c0.32,0.469,0.67,0.787,1.024,0.952c0.361,0.162,0.792,0.238,1.27,0.238c0.916,0,1.626-0.281,2.125-0.841
			c0.499-0.557,0.838-1.366,1.047-2.418c0.182-1.057,0.284-2.848,0.284-5.383h-3.457v-3.319h7.207v4.755H96.203z"/>
		<path fill="#7E7E7E" d="M114.111,32.771c0,4.699-2.11,7.049-6.318,7.049c-4.63,0-6.939-2.336-6.939-7.008v-16.07h3.75v14.479
			c0,2.14,0.186,3.613,0.554,4.433s1.176,1.228,2.416,1.228c1.232,0,2.011-0.431,2.315-1.291c0.309-0.863,0.459-2.394,0.459-4.591
			V16.742h3.763V32.771L114.111,32.771z M100.854,15.051v-3.746h3.75v3.746H100.854L100.854,15.051z M110.348,15.051v-3.746h3.763
			v3.746H110.348L110.348,15.051z"/>
		<polygon fill="#7E7E7E" points="132.941,39.42 129.965,39.42 122.774,20.096 122.684,20.101 122.684,39.42 119.282,39.42 
			119.282,11.257 122.316,11.257 129.514,30.586 129.611,30.6 129.611,11.257 132.941,11.257 		"/>
		<path fill="#7E7E7E" d="M161.125,29.451c0,3.246-0.547,5.762-1.652,7.551c-1.105,1.795-3.061,2.684-5.861,2.684
			c-2.5,0-4.314-0.922-5.436-2.774c-1.119-1.845-1.684-5.401-1.684-10.662c0-0.616,0.072-2.264,0.193-4.942
			c0.145-2.671,0.328-4.484,0.594-5.436c0.254-0.953,0.691-1.836,1.291-2.655c0.605-0.817,1.375-1.426,2.295-1.834
			c0.93-0.404,2.023-0.605,3.279-0.605c1.76,0,3.291,0.534,4.574,1.601c1.283,1.069,1.98,2.479,2.119,4.235l-3.578,1.3
			c-0.287-2.711-1.334-4.064-3.115-4.064c-1.375,0-2.322,0.701-2.869,2.111c-0.533,1.403-0.799,3.74-0.799,6.996v1.438
			c0,1.888,0.061,3.683,0.17,5.396c0.115,1.721,0.23,2.98,0.344,3.773c0.094,0.795,0.307,1.43,0.633,1.902
			c0.322,0.469,0.664,0.787,1.025,0.952c0.365,0.162,0.785,0.238,1.27,0.238c0.924,0,1.617-0.281,2.123-0.841
			c0.5-0.557,0.85-1.366,1.039-2.418c0.189-1.057,0.287-2.848,0.287-5.383h-3.449v-3.319h7.207V29.451L161.125,29.451z"/>
		<path fill="#7E7E7E" d="M178.08,39.42h-3.936l-4.414-13.217h-0.342V39.42h-3.795V11.257h5.26c4.289,0,6.434,2.406,6.434,7.212
			c0,2.177-0.316,3.822-0.949,4.927c-0.637,1.104-1.658,1.938-3.094,2.496L178.08,39.42L178.08,39.42z M169.389,23.617
			L169.389,23.617c1.477-0.023,2.541-0.381,3.197-1.051c0.656-0.668,0.982-1.891,0.982-3.657c0-1.696-0.287-2.905-0.889-3.627
			c-0.6-0.718-1.623-1.083-3.063-1.083h-0.229V23.617L169.389,23.617z"/>
		<path fill="#7E7E7E" d="M181.602,25.26c0-6.106,0.596-10.064,1.805-11.86c1.188-1.793,3.174-2.692,5.926-2.692
			c3.158,0,5.248,1.005,6.285,3.014c1.049,2.01,1.557,5.63,1.557,10.852c0,4.686-0.223,7.932-0.693,9.742
			c-0.451,1.814-1.256,3.148-2.404,4.002c-1.141,0.852-2.689,1.281-4.645,1.281c-2.029,0-3.568-0.396-4.654-1.187
			c-1.072-0.784-1.875-2.065-2.393-3.83C181.863,32.816,181.602,29.711,181.602,25.26L181.602,25.26z M193.201,25.482
			L193.201,25.482c0-5.344-0.309-8.644-0.945-9.901c-0.625-1.261-1.568-1.89-2.824-1.89c-1.477,0-2.486,0.755-3.033,2.265
			c-0.547,1.506-0.82,4.053-0.82,7.628v1.547c0,3.994,0.221,6.9,0.67,8.732c0.436,1.834,1.504,2.748,3.184,2.748
			c1.039,0,1.926-0.512,2.662-1.547c0.738-1.023,1.107-3.875,1.107-8.541V25.482L193.201,25.482z"/>
		<path fill="#7E7E7E" d="M215.91,32.771c0,4.699-2.109,7.049-6.33,7.049c-4.617,0-6.934-2.336-6.934-7.008V11.306h3.758v19.915
			c0,2.14,0.186,3.613,0.545,4.433c0.371,0.817,1.174,1.228,2.41,1.228s2.018-0.431,2.33-1.291c0.303-0.863,0.457-2.394,0.457-4.591
			V11.306h3.764V32.771L215.91,32.771z"/>
		<path fill="#7E7E7E" d="M221.211,11.257h6.217c4.037,0,6.057,2.663,6.057,7.984c0,2.121-0.361,3.79-1.078,5.004
			c-0.709,1.218-1.605,1.981-2.67,2.297c-1.072,0.32-2.643,0.49-4.721,0.521V39.42h-3.805V11.257L221.211,11.257z M225.014,24.125
			L225.014,24.125c1.609,0,2.756-0.32,3.451-0.973c0.689-0.648,1.031-1.951,1.031-3.911c0-1.974-0.295-3.321-0.9-4.023
			c-0.604-0.71-1.807-1.062-3.582-1.062V24.125L225.014,24.125z"/>
	</g>
</g>
</svg>
